# xmcd
#
# Track frame offsets:
#	150
#	12035
#	25015
#	38217
#	75997
#	87070
#	98392
#	112020
#	124105
#	137490
#	149127
#	165135
#	184910
#	194612
#	210220
#	221992
#
# Disc length: 3245
#
# Revision: 2
# Processed by: cddbd v1.5.1PL0 Copyright (c) Steve Scherf et al.
# Submitted via: CDmax 1.8
# Normalized: r1:DSETVAR1
#
DISCID=cc0cab10
DTITLE=Various Artist - Sweet Soul Music
DYEAR=1992
DGENRE=Blues
TTITLE0=Wilson Picket - In The Midnight Hour (1965)
TTITLE1=Booker T. and The MG's - Green Onions (1962)
TTITLE2=Ray Charles - What'd I Say (Part 1) (1959)
TTITLE3=Three Degrees - Dirty Ol' Man (1976)
TTITLE4=Aretha Franklin - Respect (1967)
TTITLE5=Fufus Thomas - The Dog (1962)
TTITLE6=Don Covay - See Saw (1965)
TTITLE7=The Drifters - Under The Boardwalk (1964)
TTITLE8=Otis and Carla - Tramp (1967)
TTITLE9=Solomon Burke - If You Need Me (1963)
TTITLE10=Lou Rawls - You'll Never Find Another Love Like Mine ((1976)
TTITLE11=Glady's Knight and The Pips - I Can See Clearly Now (1976)
TTITLE12=Tony Jackson - Wonderful World (1991)
TTITLE13=Billy Paul - Only The Strong Survive (1977)
TTITLE14=Joe Tex - A Sweet Woman Like You (1966)
TTITLE15=Pattie La Belle - Love, Need And Want You (1984)
EXTD=
EXTT0=
EXTT1=
EXTT2=
EXTT3=
EXTT4=
EXTT5=
EXTT6=
EXTT7=
EXTT8=
EXTT9=
EXTT10=
EXTT11=
EXTT12=
EXTT13=
EXTT14=
EXTT15=
PLAYORDER=
